<?xml version="1.0" standalone="no"?>
<!DOCTYPE svg PUBLIC "-//W3C//DTD SVG 20010904//EN"
 "http://www.w3.org/TR/2001/REC-SVG-20010904/DTD/svg10.dtd">
<svg version="1.0" xmlns="http://www.w3.org/2000/svg"
 width="894.000000pt" height="547.000000pt" viewBox="0 0 894.000000 547.000000"
 preserveAspectRatio="xMidYMid meet">

<g transform="translate(0.000000,547.000000) scale(0.100000,-0.100000)"
fill="#000000" stroke="none">
<path d="M227 5336 c4 -55 6 -1028 4 -2161 -7 -3140 -7 -3128 23 -3134 28 -5
7688 -10 7683 -4 -4 3 -55 5 -114 4 -59 0 -144 4 -188 11 -44 6 -102 10 -128
9 -26 -1 -53 2 -60 6 -16 10 -1064 13 -1099 2 -16 -4 -28 -4 -28 0 0 4 -72 9
-160 10 -99 1 -160 -1 -160 -8 0 -5 3 -11 8 -14 4 -2 0 -2 -8 1 -8 3 -105 6
-215 8 -110 1 -306 6 -435 10 -129 4 -246 7 -260 7 -14 0 -250 0 -525 -1 -275
0 -705 1 -955 2 -250 1 -466 -2 -480 -7 -36 -13 -227 -12 -243 1 -13 11 -60 5
-53 -7 6 -9 -161 -7 -170 2 -4 4 -29 7 -55 7 -26 0 -49 5 -51 11 -2 7 -13 9
-25 5 -12 -4 -20 -13 -17 -20 6 -15 -10 -18 -96 -15 -281 7 -535 21 -563 29
-17 6 -25 6 -22 0 4 -6 -39 -10 -112 -10 -65 -1 -174 -1 -243 -2 -69 0 -221 5
-339 11 -190 10 -217 14 -235 31 -71 67 -76 70 -126 70 -38 0 -50 -4 -53 -17
-3 -11 -5 -7 -6 10 -1 25 -4 27 -41 27 -22 0 -40 -4 -40 -10 0 -18 -21 -10
-45 18 -20 21 -27 24 -34 13 -7 -10 -25 -12 -81 -6 -48 5 -75 4 -79 -3 -7 -12
-51 -5 -51 8 0 4 12 11 26 14 18 5 24 12 20 22 -3 9 -6 31 -6 50 0 24 -4 34
-16 34 -8 0 -29 14 -46 31 -24 23 -32 42 -36 80 -4 44 -7 49 -28 49 -21 0 -24
5 -24 40 0 22 4 40 9 40 12 0 22 113 11 124 -6 6 -10 52 -10 103 0 79 2 93 16
93 14 0 15 10 9 78 -4 42 -12 80 -17 83 -7 4 -6 9 1 13 6 4 11 17 12 29 0 12
3 17 6 10 3 -10 9 -10 24 0 24 15 24 27 0 27 -16 0 -19 11 -25 71 -4 40 -13
80 -19 90 -9 14 -9 21 1 31 6 6 12 27 12 45 0 18 6 43 13 54 9 17 9 23 0 26
-9 3 -13 30 -13 84 0 43 -4 79 -8 79 -11 0 -19 469 -12 665 2 55 4 447 3 870
-1 1065 2 1291 16 1288 15 -4 14 34 -2 40 -10 4 -13 56 -15 223 -2 121 -5 231
-8 246 -7 31 24 68 56 68 12 0 20 7 20 17 0 13 3 14 12 5 16 -16 28 -15 28 3
0 8 9 15 20 15 11 0 20 6 20 14 0 8 14 23 30 33 17 9 30 21 30 25 0 4 -13 8
-30 8 -25 0 -30 4 -30 25 0 14 -6 25 -13 25 -24 0 -47 36 -47 73 0 31 3 37 21
37 18 0 19 2 9 15 -7 9 -10 18 -7 22 10 9 94 22 150 22 26 1 47 6 47 11 0 12
157 14 162 2 2 -5 48 -5 103 -1 55 4 263 10 462 12 304 5 361 3 357 -8 -3 -8
-3 -19 0 -24 9 -14 36 -2 36 15 0 11 18 14 78 15 236 1 424 0 967 -7 330 -4
627 -8 660 -8 33 -1 90 3 128 7 57 6 67 5 67 -8 0 -18 4 -19 38 -1 33 16 458
20 510 4 21 -6 37 -6 45 0 16 13 147 12 147 0 0 -6 13 -8 30 -4 17 3 93 8 170
12 102 5 140 3 140 -5 0 -9 5 -9 21 -1 13 7 50 10 97 6 42 -3 84 -5 92 -6 8 0
44 3 80 8 l65 9 -70 3 -70 3 95 7 c52 4 127 8 165 8 l70 -1 -75 -8 c-118 -14
-107 -16 70 -16 91 1 144 3 118 7 -26 3 -49 8 -52 10 -5 6 13 6 564 0 388 -4
391 -5 160 -10 -181 -5 -123 -6 255 -7 475 -1 643 5 495 18 -36 3 95 5 290 5
215 0 298 -2 210 -6 -143 -5 -144 -5 -66 -12 43 -5 246 -7 450 -6 250 1 327 4
236 8 -121 5 -111 6 101 8 130 1 319 4 420 6 111 3 148 2 92 -2 -50 -4 -95
-11 -100 -16 -4 -5 7 -5 26 -1 19 4 126 4 238 0 196 -7 203 -8 208 -29 3 -11
7 -84 9 -161 10 -356 20 -587 27 -560 4 17 7 -53 8 -155 2 -163 11 -452 15
-457 0 -1 1 313 1 698 l0 699 -50 0 c-27 0 -1982 1 -4343 3 l-4293 4 8 -101z
m1210 78 c-3 -3 -12 -4 -19 -1 -8 3 -5 6 6 6 11 1 17 -2 13 -5z m146 -1 c-13
-2 -35 -2 -50 0 -16 2 -5 4 22 4 28 0 40 -2 28 -4z m60 0 c-7 -2 -19 -2 -25 0
-7 3 -2 5 12 5 14 0 19 -2 13 -5z m6066 -8 c7 -7 -165 -4 -239 5 -41 4 -10 5
85 3 82 -2 151 -6 154 -8z m-3552 -1 c-3 -3 -12 -4 -19 -1 -8 3 -5 6 6 6 11 1
17 -2 13 -5z m-3880 -156 c-2 -13 -4 -3 -4 22 0 25 2 35 4 23 2 -13 2 -33 0
-45z m21 -114 c2 -24 -29 -63 -50 -64 -14 0 -8 45 8 68 20 30 39 28 42 -4z
m8589 -211 c-3 -10 -5 -4 -5 12 0 17 2 24 5 18 2 -7 2 -21 0 -30z m0 -90 c-2
-16 -4 -5 -4 22 0 28 2 40 4 28 2 -13 2 -35 0 -50z m-8601 -4537 c1 -38 -2
-46 -14 -44 -9 2 -23 15 -31 30 -14 24 -14 28 4 48 27 30 40 20 41 -34z m-11
-142 c3 -20 4 -39 1 -42 -9 -8 -13 0 -19 41 -7 48 9 49 18 1z m365 6 c0 -5 20
-10 45 -10 25 0 44 -3 44 -7 -4 -25 5 -32 44 -36 29 -2 20 -4 -28 -5 -38 -1
-94 1 -123 5 l-53 6 27 28 c29 30 44 36 44 19z m383 -77 c-13 -2 -33 -2 -45 0
-13 2 -3 4 22 4 25 0 35 -2 23 -4z m330 -20 c-7 -2 -19 -2 -25 0 -7 3 -2 5 12
5 14 0 19 -2 13 -5z m390 -10 c-13 -2 -33 -2 -45 0 -13 2 -3 4 22 4 25 0 35
-2 23 -4z"/>
<path d="M5380 5400 c0 -5 9 -10 20 -10 11 0 20 5 20 10 0 6 -9 10 -20 10 -11
0 -20 -4 -20 -10z"/>
<path d="M6888 5403 c28 -2 76 -2 105 0 28 2 5 3 -53 3 -58 0 -81 -1 -52 -3z"/>
<path d="M8290 5400 l-35 -7 32 -2 c17 0 35 4 38 9 3 6 5 9 3 9 -2 -1 -19 -5
-38 -9z"/>
<path d="M5608 5393 c7 -3 16 -2 19 1 4 3 -2 6 -13 5 -11 0 -14 -3 -6 -6z"/>
<path d="M8053 5393 c32 -2 81 -2 110 0 29 2 3 3 -58 3 -60 0 -84 -1 -52 -3z"/>
<path d="M130 5300 c0 -5 5 -10 11 -10 5 0 7 5 4 10 -3 6 -8 10 -11 10 -2 0
-4 -4 -4 -10z"/>
<path d="M51 5255 c-1 -25 17 -45 39 -45 12 1 11 3 -3 11 -10 6 -22 20 -27 32
-8 21 -9 21 -9 2z"/>
<path d="M285 4920 c-3 -5 -1 -10 4 -10 6 0 11 5 11 10 0 6 -2 10 -4 10 -3 0
-8 -4 -11 -10z"/>
<path d="M8873 4530 c0 -36 2 -50 4 -32 2 17 2 47 0 65 -2 17 -4 3 -4 -33z"/>
<path d="M301 4464 c0 -11 3 -14 6 -6 3 7 2 16 -1 19 -3 4 -6 -2 -5 -13z"/>
<path d="M271 4310 l1 -45 8 35 c5 20 5 39 -1 45 -5 5 -9 -8 -8 -35z"/>
<path d="M301 4160 c1 -55 1 -55 10 -17 6 24 5 45 -1 55 -7 12 -9 2 -9 -38z"/>
<path d="M272 4175 c0 -16 2 -22 5 -12 2 9 2 23 0 30 -3 6 -5 -1 -5 -18z"/>
<path d="M4445 4079 c-410 -51 -759 -289 -972 -661 -48 -83 -89 -176 -82 -183
2 -1 38 4 79 12 57 12 144 16 365 16 251 1 309 -2 430 -21 636 -100 1149 -321
1570 -676 l90 -76 8 27 c17 54 13 371 -6 465 -64 323 -251 636 -492 828 -176
140 -405 236 -640 270 -83 11 -252 11 -350 -1z m645 -859 c36 0 37 -6 5 -31
-21 -17 -23 -24 -14 -46 12 -33 4 -41 -19 -20 -23 21 -36 21 -52 2 -21 -25
-31 -17 -25 19 6 28 3 36 -14 45 -30 17 -26 31 9 31 19 0 33 6 35 15 16 50 17
51 31 18 11 -27 20 -33 44 -33z"/>
<path d="M8891 3633 c-1 -150 -5 -244 -11 -248 -5 -3 -9 -23 -9 -43 l2 -37 7
40 c8 42 5 -153 -3 -255 l-5 -55 7 50 c4 30 8 -45 9 -188 1 -155 -2 -236 -8
-232 -16 10 -11 -8 8 -32 16 -22 17 8 14 600 -1 342 -4 627 -6 632 -3 6 -5
-99 -5 -232z"/>
<path d="M8872 3530 c0 -14 2 -19 5 -12 2 6 2 18 0 25 -3 6 -5 1 -5 -13z"/>
<path d="M8872 3430 c0 -14 2 -19 5 -12 2 6 2 18 0 25 -3 6 -5 1 -5 -13z"/>
<path d="M8872 3210 c0 -14 2 -19 5 -12 2 6 2 18 0 25 -3 6 -5 1 -5 -13z"/>
<path d="M3807 3186 c-4 -9 -2 -16 3 -16 6 0 10 5 10 10 0 12 48 3 68 -13 8
-6 12 -6 12 1 0 14 -9 19 -51 27 -28 5 -38 3 -42 -9z"/>
<path d="M3640 3179 c0 -5 5 -7 10 -4 6 3 10 8 10 11 0 2 -4 4 -10 4 -5 0 -10
-5 -10 -11z"/>
<path d="M3693 3183 c16 -3 31 -11 34 -19 3 -8 9 -14 14 -14 6 0 5 9 -1 20 -8
14 -20 20 -43 19 -31 -2 -31 -2 -4 -6z"/>
<path d="M3970 3183 c0 -5 21 -9 47 -11 26 -2 45 -1 43 1 -10 8 -90 17 -90 10z"/>
<path d="M3527 3173 c29 -6 45 -27 54 -71 7 -36 7 -36 8 -6 1 39 -33 84 -62
83 l-22 -2 22 -4z"/>
<path d="M4120 3176 c0 -2 7 -7 16 -10 8 -3 12 -2 9 4 -6 10 -25 14 -25 6z"/>
<path d="M3479 3153 c-13 -16 -12 -17 4 -4 16 13 21 21 13 21 -2 0 -10 -8 -17
-17z"/>
<path d="M3641 3144 c0 -11 3 -14 6 -6 3 7 2 16 -1 19 -3 4 -6 -2 -5 -13z"/>
<path d="M3960 3149 c0 -5 5 -7 10 -4 6 3 10 8 10 11 0 2 -4 4 -10 4 -5 0 -10
-5 -10 -11z"/>
<path d="M3803 3110 c0 -25 2 -35 4 -22 2 12 2 32 0 45 -2 12 -4 2 -4 -23z"/>
<path d="M4360 3120 c0 -11 2 -20 4 -20 2 0 6 9 9 20 3 11 1 20 -4 20 -5 0 -9
-9 -9 -20z"/>
<path d="M4438 3123 c7 -3 16 -2 19 1 4 3 -2 6 -13 5 -11 0 -14 -3 -6 -6z"/>
<path d="M3688 3113 c7 -3 16 -2 19 1 4 3 -2 6 -13 5 -11 0 -14 -3 -6 -6z"/>
<path d="M3901 3104 c0 -11 3 -14 6 -6 3 7 2 16 -1 19 -3 4 -6 -2 -5 -13z"/>
<path d="M4013 3113 c9 -2 25 -2 35 0 9 3 1 5 -18 5 -19 0 -27 -2 -17 -5z"/>
<path d="M4112 3090 c0 -14 2 -19 5 -12 2 6 2 18 0 25 -3 6 -5 1 -5 -13z"/>
<path d="M3730 3072 c0 -12 19 -26 26 -19 2 2 -2 10 -11 17 -9 8 -15 8 -15 2z"/>
<path d="M3645 3060 c-3 -5 -1 -10 4 -10 6 0 11 5 11 10 0 6 -2 10 -4 10 -3 0
-8 -4 -11 -10z"/>
<path d="M3560 3050 c-9 -6 -10 -10 -3 -10 6 0 15 5 18 10 8 12 4 12 -15 0z"/>
<path d="M3965 3050 c3 -5 8 -10 11 -10 2 0 4 5 4 10 0 6 -5 10 -11 10 -5 0
-7 -4 -4 -10z"/>
<path d="M4023 3043 c9 -2 23 -2 30 0 6 3 -1 5 -18 5 -16 0 -22 -2 -12 -5z"/>
<path d="M4160 3040 c0 -5 5 -10 11 -10 5 0 7 5 4 10 -3 6 -8 10 -11 10 -2 0
-4 -4 -4 -10z"/>
<path d="M4950 2981 c0 -6 4 -13 10 -16 6 -3 7 1 4 9 -7 18 -14 21 -14 7z"/>
<path d="M3560 2960 c-47 -5 -122 -14 -167 -20 l-82 -12 -7 -34 c-11 -61 3
-374 21 -454 36 -166 122 -360 222 -504 74 -107 247 -277 353 -347 247 -163
461 -229 744 -229 163 0 285 23 450 85 228 85 452 260 601 469 54 77 155 265
155 291 0 27 -251 221 -415 320 -358 217 -792 361 -1265 420 -152 19 -493 27
-610 15z m20 -60 c10 0 10 -3 0 -15 -6 -8 -9 -19 -5 -25 5 -7 0 -10 -11 -9
-11 2 -25 0 -31 -4 -9 -6 -13 -2 -13 10 0 11 -5 24 -12 31 -9 9 -8 12 5 12 10
0 20 7 24 16 6 16 7 16 18 0 7 -9 18 -16 25 -16z m614 -220 c18 0 22 -15 6
-25 -5 -3 -10 -15 -10 -26 0 -20 -15 -26 -25 -9 -5 8 -11 7 -21 -1 -11 -9 -14
-7 -14 9 0 12 -4 24 -10 27 -17 10 -11 25 10 25 12 0 20 7 20 18 1 16 1 16 14
0 7 -10 21 -18 30 -18z m776 -30 c0 -5 7 -10 15 -10 8 0 15 -4 15 -10 0 -5 -5
-10 -11 -10 -6 0 -9 -8 -6 -18 3 -15 -1 -19 -24 -18 -16 1 -29 6 -29 13 0 6
-3 18 -6 27 -4 11 -1 16 10 16 9 0 16 5 16 10 0 6 5 10 10 10 6 0 10 -4 10
-10z m-295 -141 c17 -4 17 -5 2 -21 -9 -9 -14 -24 -11 -32 7 -18 -7 -21 -23
-5 -8 8 -13 8 -17 0 -11 -17 -29 -13 -22 5 4 10 -1 25 -10 35 -16 18 -16 19 5
19 12 0 24 7 28 16 6 15 7 15 17 2 6 -9 20 -17 31 -19z m-825 -29 c10 0 10 -3
0 -15 -6 -8 -9 -18 -6 -23 3 -5 -8 -9 -24 -9 -16 0 -27 4 -24 9 3 5 0 15 -6
23 -10 12 -9 15 4 15 9 0 16 8 16 18 1 16 1 16 14 0 7 -10 19 -18 26 -18z
m-149 -80 c9 -24 17 -30 40 -30 34 0 37 -10 8 -28 -17 -11 -20 -19 -14 -49 l6
-36 -26 22 -27 21 -26 -20 c-31 -25 -36 -21 -22 15 10 26 8 31 -17 51 l-28 23
33 1 c28 0 36 5 45 30 6 17 13 30 15 30 2 0 8 -13 13 -30z m1094 -9 c4 -13 12
-17 25 -14 24 6 27 -15 4 -24 -10 -4 -14 -13 -10 -27 5 -19 1 -21 -34 -21 -35
0 -39 2 -34 21 4 14 0 23 -10 27 -25 10 -19 27 9 27 16 0 25 6 25 15 0 21 18
19 25 -4z m-271 -21 c18 0 22 -15 5 -26 -6 -3 -9 -14 -6 -23 3 -13 -3 -17 -29
-17 -26 0 -34 4 -34 17 0 10 -4 21 -10 24 -17 10 -11 25 10 25 12 0 20 7 20
18 1 16 1 16 14 0 7 -10 21 -18 30 -18z m1036 -55 c0 -8 9 -15 20 -15 21 0 27
-15 10 -25 -6 -4 -10 -14 -9 -23 3 -30 -1 -35 -16 -22 -12 10 -18 10 -30 0
-15 -13 -19 -8 -16 22 1 9 -3 19 -9 23 -17 10 -11 25 10 25 11 0 20 7 20 15 0
8 5 15 10 15 6 0 10 -7 10 -15z m-937 -35 c16 0 18 -3 9 -12 -7 -7 -12 -21
-12 -32 0 -15 -3 -17 -12 -8 -8 8 -17 8 -30 1 -17 -9 -19 -8 -13 10 4 12 2 21
-4 21 -6 0 -11 5 -11 10 0 6 6 10 14 10 8 0 17 8 21 18 8 16 8 16 12 0 3 -10
14 -18 26 -18z m-631 -55 c-4 -26 -52 -28 -52 -2 0 9 -6 17 -12 17 -7 0 -2 9
11 19 22 17 25 17 40 2 9 -9 15 -25 13 -36z m-410 25 c13 -12 17 -20 9 -20 -8
0 -11 -7 -8 -18 3 -15 -1 -19 -24 -18 -16 1 -29 6 -29 13 0 6 -3 18 -6 27 -4
11 -1 16 10 16 9 0 16 5 16 10 0 15 8 12 32 -10z m2138 -6 c0 -8 9 -14 20 -14
23 0 27 -15 6 -23 -9 -4 -12 -14 -9 -26 6 -23 -6 -28 -24 -10 -8 8 -13 8 -17
0 -12 -19 -28 -12 -21 9 4 13 1 22 -9 26 -22 9 -20 24 3 24 11 0 23 9 26 20 7
22 25 18 25 -6z m-1087 -124 c3 -13 14 -20 28 -20 21 0 21 -1 5 -19 -12 -13
-15 -27 -11 -41 6 -20 5 -21 -14 -11 -16 9 -26 9 -42 0 -19 -10 -20 -9 -14 11
4 14 1 28 -11 41 -16 18 -16 19 5 19 14 0 25 7 28 20 3 11 9 20 13 20 4 0 10
-9 13 -20z m978 -9 c13 -11 16 -21 10 -25 -5 -4 -8 -12 -5 -20 3 -9 -5 -13
-26 -13 -21 0 -29 4 -26 13 3 8 1 16 -4 19 -5 3 -2 14 8 25 22 23 19 23 43 1z
m-1664 -21 c12 0 13 -3 3 -15 -6 -8 -9 -18 -6 -23 3 -5 -8 -9 -24 -9 -16 0
-27 4 -24 9 3 5 0 15 -6 23 -10 12 -9 15 3 15 8 0 18 8 22 18 8 16 8 16 12 0
3 -10 11 -18 20 -18z m1566 -60 c3 -13 10 -18 21 -14 11 4 16 1 16 -10 0 -9
-4 -16 -10 -16 -5 0 -10 -12 -10 -26 0 -23 -2 -25 -15 -14 -12 10 -19 10 -27
2 -19 -19 -29 -14 -22 13 4 15 2 25 -5 25 -6 0 -11 7 -11 16 0 11 5 14 16 10
11 -4 18 1 21 14 3 11 9 20 13 20 4 0 10 -9 13 -20z m-203 -60 c10 0 10 -3 0
-15 -6 -8 -9 -19 -6 -24 4 -6 -7 -9 -24 -9 -21 1 -29 5 -26 14 3 7 0 14 -6 16
-8 3 -5 12 8 25 16 17 21 18 30 7 6 -8 17 -14 24 -14z m-1180 0 c0 -5 7 -10
15 -10 17 0 20 -16 5 -25 -5 -3 -7 -11 -4 -18 2 -8 -7 -12 -26 -13 -25 -1 -29
2 -25 17 4 11 2 19 -4 19 -6 0 -11 5 -11 10 0 6 7 10 15 10 8 0 15 5 15 10 0
6 5 10 10 10 6 0 10 -4 10 -10z m820 -40 c10 0 10 -3 0 -15 -6 -8 -9 -18 -6
-23 3 -5 -8 -9 -25 -9 -20 0 -28 4 -25 13 3 8 1 16 -4 19 -5 3 -2 14 8 24 14
15 19 16 28 5 6 -8 17 -14 24 -14z m463 24 c20 -7 9 -44 -13 -44 -22 0 -35 31
-18 42 16 9 13 9 31 2z m-263 -19 c0 -8 3 -14 8 -12 12 4 14 -7 5 -28 -12 -29
-51 -31 -55 -2 -3 21 18 54 35 56 4 1 7 -6 7 -14z m113 -96 c4 -15 11 -20 21
-16 10 4 16 1 16 -7 0 -8 -7 -17 -15 -20 -13 -4 -14 -10 -5 -26 12 -22 7 -25
-20 -10 -13 7 -21 7 -25 0 -10 -17 -28 -11 -21 6 4 10 -1 25 -10 35 -16 18
-16 19 4 19 12 0 23 8 27 20 8 26 21 25 28 -1z m-213 -66 c0 -9 6 -13 15 -10
20 8 28 -8 11 -22 -8 -7 -12 -21 -9 -33 5 -18 4 -19 -16 -8 -17 9 -26 9 -37
-1 -11 -9 -14 -7 -14 14 0 14 -4 29 -10 32 -17 10 -11 25 9 25 10 0 22 7 25
16 7 18 26 9 26 -13z m280 -63 c0 -13 7 -20 20 -20 22 0 27 -15 9 -26 -6 -3
-8 -17 -5 -30 7 -25 -3 -31 -21 -13 -8 8 -17 8 -33 -1 -21 -11 -22 -11 -16 14
5 19 2 28 -9 32 -22 9 -18 24 6 24 12 0 23 8 26 20 3 11 9 20 14 20 5 0 9 -9
9 -20z m-672 -70 c7 0 7 -7 -1 -22 -13 -29 -57 -34 -57 -7 0 10 -6 19 -12 20
-7 0 -3 4 10 9 12 5 22 15 22 22 1 8 5 7 14 -4 7 -10 18 -18 24 -18z"/>
<path d="M4971 2934 c0 -11 3 -14 6 -6 3 7 2 16 -1 19 -3 4 -6 -2 -5 -13z"/>
<path d="M8873 2850 c0 -47 2 -66 4 -42 2 23 2 61 0 85 -2 23 -4 4 -4 -43z"/>
<path d="M5012 2855 c0 -16 2 -22 5 -12 2 9 2 23 0 30 -3 6 -5 -1 -5 -18z"/>
<path d="M5350 2800 c0 -6 7 -10 15 -10 8 0 15 2 15 4 0 2 -7 6 -15 10 -8 3
-15 1 -15 -4z"/>
<path d="M5531 2703 c7 -12 15 -20 18 -17 3 2 -3 12 -13 22 -17 16 -18 16 -5
-5z"/>
<path d="M5496 2648 c10 -14 21 -24 23 -22 3 3 -6 15 -18 27 l-24 22 19 -27z"/>
<path d="M5357 2649 c7 -7 15 -10 18 -7 3 3 -2 9 -12 12 -14 6 -15 5 -6 -5z"/>
<path d="M5432 2630 c0 -14 2 -19 5 -12 2 6 2 18 0 25 -3 6 -5 1 -5 -13z"/>
<path d="M5671 2594 c0 -11 3 -14 6 -6 3 7 2 16 -1 19 -3 4 -6 -2 -5 -13z"/>
<path d="M8888 2389 c-1 -112 -1 -215 0 -229 1 -13 -4 -28 -11 -33 -9 -6 -9
-10 0 -13 8 -4 9 -15 2 -37 -5 -18 -9 -41 -9 -52 0 -17 2 -18 11 -5 7 11 8 -1
3 -40 -10 -77 -10 -112 -2 -136 3 -11 3 -45 -1 -75 -4 -31 -2 -66 4 -82 7 -21
6 -30 -3 -36 -9 -5 -10 -15 -3 -32 13 -37 13 -142 -2 -151 -9 -6 -9 -8 0 -8 9
0 12 -48 11 -182 0 -104 -4 -170 -8 -153 -5 19 -8 -8 -7 -75 0 -79 2 -95 8
-65 5 29 7 14 5 -53 -1 -59 -7 -96 -14 -101 -9 -5 -9 -17 -2 -42 7 -22 7 -35
0 -37 -6 -2 -6 -10 0 -22 5 -10 9 -49 8 -87 -1 -37 2 -101 7 -140 5 -52 4 -73
-4 -73 -6 0 -11 -12 -11 -26 0 -14 4 -23 10 -19 6 4 10 -7 10 -25 0 -18 -4
-29 -10 -25 -6 4 -10 -7 -10 -25 0 -18 4 -29 10 -25 6 3 10 1 10 -5 0 -6 -7
-13 -15 -16 -17 -7 -21 -34 -5 -34 6 0 10 -7 10 -16 0 -8 -4 -13 -9 -10 -11 7
-22 -45 -14 -72 5 -20 -19 -57 -29 -46 -3 2 -16 0 -29 -5 -22 -9 -22 -10 10
-10 19 -1 31 -4 28 -7 -3 -4 -44 -6 -89 -5 -54 1 -79 -2 -73 -8 11 -11 210
-19 220 -9 8 7 8 2538 0 2546 -3 3 -6 -87 -7 -199z m-1 -1341 c-3 -8 -6 -5 -6
6 -1 11 2 17 5 13 3 -3 4 -12 1 -19z"/>
<path d="M8871 2224 c0 -11 3 -14 6 -6 3 7 2 16 -1 19 -3 4 -6 -2 -5 -13z"/>
<path d="M3604 1331 c7 -11 46 -35 46 -28 0 3 -12 12 -26 22 -15 9 -23 12 -20
6z"/>
<path d="M5266 1075 c-11 -8 -15 -15 -9 -15 6 0 16 7 23 15 16 19 11 19 -14 0z"/>
<path d="M280 1030 c0 -33 3 -40 20 -40 17 0 20 7 20 40 0 33 -3 40 -20 40
-17 0 -20 -7 -20 -40z"/>
<path d="M4077 999 c7 -7 15 -10 18 -7 3 3 -2 9 -12 12 -14 6 -15 5 -6 -5z"/>
<path d="M5084 955 c-10 -8 -14 -14 -9 -14 6 0 19 6 29 14 11 8 15 15 10 15
-6 0 -19 -7 -30 -15z"/>
<path d="M5025 920 c-3 -5 -1 -10 4 -10 6 0 11 5 11 10 0 6 -2 10 -4 10 -3 0
-8 -4 -11 -10z"/>
<path d="M4250 886 c0 -3 9 -10 20 -16 11 -6 20 -8 20 -6 0 3 -9 10 -20 16
-11 6 -20 8 -20 6z"/>
<path d="M4930 860 c-14 -11 -30 -20 -37 -20 -6 0 -15 -5 -18 -11 -8 -11 65
17 79 31 19 19 0 18 -24 0z"/>
<path d="M4850 806 c0 -2 7 -7 16 -10 8 -3 12 -2 9 4 -6 10 -25 14 -25 6z"/>
<path d="M8871 464 c0 -11 3 -14 6 -6 3 7 2 16 -1 19 -3 4 -6 -2 -5 -13z"/>
<path d="M56 234 c-12 -31 -6 -53 20 -73 35 -27 49 -26 81 5 31 31 22 46 -10
16 -28 -27 -49 -28 -70 -4 -14 16 -15 21 -2 45 11 22 11 27 0 27 -7 0 -16 -7
-19 -16z"/>
<path d="M3558 103 c7 -3 16 -2 19 1 4 3 -2 6 -13 5 -11 0 -14 -3 -6 -6z"/>
<path d="M2450 80 c0 -5 7 -10 15 -10 8 0 15 5 15 10 0 6 -7 10 -15 10 -8 0
-15 -4 -15 -10z"/>
<path d="M8600 56 c0 -2 9 -6 20 -9 11 -3 20 -1 20 4 0 5 -9 9 -20 9 -11 0
-20 -2 -20 -4z"/>
<path d="M8428 43 c12 -2 30 -2 40 0 9 3 -1 5 -23 4 -22 0 -30 -2 -17 -4z"/>
<path d="M8513 43 c9 -2 25 -2 35 0 9 3 1 5 -18 5 -19 0 -27 -2 -17 -5z"/>
</g>
</svg>
