<svg width="38" height="38" viewBox="0 0 38 38" fill="none" xmlns="http://www.w3.org/2000/svg">
<path d="M34.6115 0.527344H18.7231C18.0208 0.527344 17.3472 0.806337 16.8506 1.30295C16.354 1.79956 16.075 2.47311 16.075 3.17542V16.4158H2.8346C2.13229 16.4158 1.45874 16.6948 0.962127 17.1914C0.465516 17.688 0.186523 18.3616 0.186523 19.0639V37.6004H37.2596V3.17542C37.2596 2.47311 36.9806 1.79956 36.484 1.30295C35.9874 0.806337 35.3139 0.527344 34.6115 0.527344ZM9.4548 34.9524V25.6841H14.751V34.9524H9.4548ZM34.6115 34.9524H17.399V24.36C17.399 24.0089 17.2595 23.6721 17.0112 23.4238C16.7629 23.1755 16.4261 23.036 16.075 23.036H8.13076C7.7796 23.036 7.44283 23.1755 7.19452 23.4238C6.94622 23.6721 6.80672 24.0089 6.80672 24.36V34.9524H2.8346V19.0639H18.7231V3.17542H34.6115V34.9524Z" fill="#DFDAD0"/>
<path d="M20.312 7.47852H23.6221V10.7886H20.312V7.47852ZM30.2423 7.47852H33.5524V10.7886H30.2423V7.47852ZM20.312 17.4088H23.6221V20.7189H20.312V17.4088ZM30.2423 17.4088H33.5524V20.7189H30.2423V17.4088ZM20.312 27.3391H23.6221V30.6492H20.312V27.3391ZM30.2423 27.3391H33.5524V30.6492H30.2423V27.3391Z" fill="#DFDAD0"/>
</svg>
