<svg width="271" height="310" viewBox="0 0 271 310" fill="none" xmlns="http://www.w3.org/2000/svg">
<path d="M193.33 189.198C197.146 189.192 200.234 191.789 200.226 194.999L200.197 207.305C200.19 210.515 197.09 213.122 193.273 213.127L73.8449 213.308C70.0286 213.314 66.9409 210.717 66.9485 207.507L66.9774 195.201C66.9849 191.991 70.0848 189.385 73.9012 189.379L193.33 189.198Z" fill="#62252F"/>
<path d="M133.012 106.486L38.8576 153.862C36.7668 154.914 35.4835 156.811 35.4787 158.857L35.3008 234.539C35.2933 237.749 38.381 240.346 42.1973 240.34L66.4653 240.304C70.2816 240.298 73.3815 237.691 73.3891 234.482L73.5247 176.755C73.5294 174.751 74.7624 172.885 76.7868 171.821L132.639 142.445C134.989 141.209 137.985 141.268 140.252 142.597L189.788 171.622C191.638 172.706 192.738 174.484 192.734 176.384L192.598 234.301C192.59 237.511 195.678 240.108 199.494 240.102L228.202 240.059C232.019 240.053 235.118 237.446 235.126 234.237L235.304 158.517C235.309 156.491 234.059 154.614 232.005 153.561L140.155 106.504C137.968 105.384 135.218 105.377 133.012 106.486Z" fill="url(#paint0_linear_244_677)"/>
<path d="M133.226 94.7566L45.802 135.74C41.1911 137.902 35.5345 135.11 35.5449 130.677L35.8376 6.10368C35.8452 2.89403 38.9451 0.287396 42.7614 0.281618L67.0294 0.244877C70.8457 0.239099 73.9334 2.83636 73.9259 6.04602L73.7621 75.7377C73.7522 79.9614 78.9333 82.7666 83.5118 81.0164L133.681 61.8387C135.591 61.1088 137.788 61.1454 139.654 61.9381L182.928 80.3153C187.52 82.2653 192.962 79.4479 192.972 75.115L193.135 5.86554C193.142 2.65588 196.242 0.0492512 200.058 0.0434733L228.766 9.8954e-06C232.583 -0.00576802 235.67 2.59149 235.663 5.80115L235.37 130.269C235.36 134.726 229.635 137.532 225.034 135.337L139.999 94.7726C137.904 93.7731 135.337 93.7671 133.226 94.7566Z" fill="url(#paint1_linear_244_677)"/>
<path d="M72.3934 249.205L80.4782 249.193L80.3922 285.806L72.3073 285.818L72.3934 249.205ZM49.7941 285.852L41.7092 285.864L41.7953 249.251L49.8801 249.239L49.7941 285.852ZM72.9661 270.126L49.1469 270.162L49.1605 264.356L72.9798 264.32L72.9661 270.126Z" fill="#702632"/>
<path d="M110.777 285.76L130.453 249.117L138.414 249.105L157.98 285.688L149.522 285.701L132.746 252.723L135.98 252.718L119.111 285.747L110.777 285.76ZM119.815 277.273L122.004 271.935L145.512 271.899L147.676 277.231L119.815 277.273Z" fill="#702632"/>
<path d="M198.959 285.626L180.014 249.042L188.783 249.029L205.684 282.112L200.646 282.119L217.889 248.985L225.974 248.972L206.919 285.614L198.959 285.626Z" fill="#702632"/>
<path d="M59.004 309.898L59.0365 296.067L61.386 296.063L61.3535 309.895L59.004 309.898Z" fill="#702632"/>
<path d="M66.2772 309.887L66.3097 296.056L68.2363 296.053L75.589 306.494L74.5552 306.496L81.8631 296.032L83.7896 296.029L83.7806 309.861L81.5251 309.864L81.5271 299.016L82.0675 299.015L75.5615 308.194L74.4807 308.195L67.9708 299.037L68.5582 299.036L68.5327 309.884L66.2772 309.887Z" fill="#702632"/>
<path d="M96.1402 310C94.8871 310.002 93.7206 309.826 92.6407 309.472C91.5765 309.118 90.6535 308.625 89.8719 307.994C89.0902 307.35 88.4812 306.6 88.0446 305.744C87.608 304.889 87.391 303.954 87.3933 302.939C87.3957 301.925 87.6172 300.989 88.0578 300.133C88.4984 299.276 89.111 298.53 89.8956 297.897C90.6803 297.25 91.6056 296.748 92.6715 296.391C93.7374 296.034 94.9047 295.854 96.1734 295.852C97.4264 295.85 98.5773 296.026 99.6258 296.381C100.69 296.721 101.613 297.214 102.395 297.858C103.192 298.489 103.801 299.233 104.222 300.088C104.659 300.944 104.876 301.885 104.873 302.913C104.871 303.94 104.649 304.883 104.209 305.74C103.784 306.596 103.171 307.348 102.371 307.995C101.586 308.628 100.661 309.124 99.595 309.481C98.5448 309.825 97.3932 309.998 96.1402 310ZM96.1443 308.241C97.0527 308.24 97.891 308.107 98.6591 307.842C99.4429 307.578 100.117 307.208 100.682 306.733C101.263 306.245 101.711 305.677 102.025 305.031C102.356 304.385 102.522 303.681 102.524 302.917C102.526 302.152 102.363 301.448 102.035 300.803C101.724 300.158 101.279 299.599 100.7 299.125C100.137 298.639 99.4648 298.264 98.6823 298.002C97.9154 297.74 97.0777 297.609 96.1693 297.611C95.2451 297.612 94.3912 297.745 93.6074 298.01C92.8393 298.275 92.165 298.651 91.5843 299.139C91.0036 299.614 90.5481 300.175 90.2177 300.821C89.9029 301.467 89.7446 302.172 89.7428 302.936C89.741 303.7 89.896 304.404 90.2077 305.049C90.5351 305.694 90.988 306.26 91.5664 306.747C92.1448 307.22 92.8175 307.588 93.5843 307.85C94.3669 308.112 95.2202 308.243 96.1443 308.241Z" fill="#702632"/>
<path d="M108.448 309.823L108.48 295.992L115.858 295.98C117.753 295.978 119.209 296.298 120.225 296.942C121.242 297.573 121.749 298.441 121.746 299.548C121.745 300.299 121.54 300.931 121.131 301.446C120.738 301.96 120.205 302.356 119.531 302.634C118.857 302.911 118.128 303.051 117.345 303.052L117.769 302.459C118.709 302.457 119.539 302.594 120.258 302.87C120.978 303.145 121.549 303.553 121.971 304.092C122.392 304.619 122.602 305.277 122.6 306.067C122.598 307.253 122.063 308.176 120.996 308.836C119.945 309.483 118.378 309.808 116.295 309.811L108.448 309.823ZM110.801 308.219L116.205 308.211C117.505 308.209 118.5 308.023 119.19 307.653C119.88 307.283 120.226 306.703 120.228 305.913C120.23 305.109 119.887 304.524 119.198 304.156C118.51 303.788 117.516 303.605 116.216 303.607L110.601 303.616L110.604 302.015L115.632 302.007C116.822 302.006 117.747 301.82 118.406 301.45C119.064 301.08 119.395 300.526 119.396 299.789C119.398 299.051 119.071 298.498 118.414 298.13C117.757 297.763 116.833 297.58 115.643 297.581L110.826 297.589L110.801 308.219Z" fill="#702632"/>
<path d="M126.229 309.796L126.262 295.965L128.611 295.961L128.579 309.793L126.229 309.796Z" fill="#702632"/>
<path d="M133.503 309.785L133.535 295.954L135.885 295.95L135.856 308.063L144.76 308.049L144.756 309.768L133.503 309.785Z" fill="#702632"/>
<path d="M147.452 309.764L147.485 295.933L149.834 295.929L149.802 309.761L147.452 309.764Z" fill="#702632"/>
<path d="M152.235 309.757L159.715 295.914L162.041 295.911L169.48 309.731L167.013 309.735L160.394 297.02L161.334 297.018L154.655 309.753L152.235 309.757ZM155.415 306.294L156.053 304.713L165.31 304.699L165.988 306.278L155.415 306.294ZM159.131 294.789L162.332 292.215L165.198 292.211L161.245 294.785L159.131 294.789Z" fill="#702632"/>
<path d="M171.933 309.727L171.966 295.896L178.38 295.886C179.821 295.884 181.05 296.073 182.067 296.453C183.084 296.834 183.866 297.386 184.413 298.11C184.959 298.833 185.231 299.696 185.229 300.697C185.227 301.698 184.951 302.561 184.401 303.286C183.851 303.999 183.066 304.547 182.047 304.93C181.028 305.314 179.798 305.507 178.357 305.509L173.236 305.516L174.295 304.606L174.283 309.724L171.933 309.727ZM182.929 309.711L178.759 304.698L181.273 304.694L185.49 309.707L182.929 309.711ZM174.294 304.803L173.24 303.837L178.291 303.829C179.794 303.827 180.931 303.555 181.699 303.014C182.484 302.46 182.877 301.688 182.88 300.7C182.882 299.712 182.492 298.949 181.71 298.41C180.944 297.871 179.809 297.603 178.305 297.605L173.254 297.613L174.314 296.623L174.294 304.803Z" fill="#702632"/>
<path d="M189.004 309.701L189.036 295.87L191.386 295.866L191.353 309.698L189.004 309.701Z" fill="#702632"/>
<path d="M193.786 309.694L201.267 295.851L203.593 295.848L211.031 309.668L208.564 309.672L201.945 296.957L202.885 296.955L196.206 309.69L193.786 309.694ZM196.966 306.231L197.604 304.65L206.861 304.636L207.539 306.215L196.966 306.231Z" fill="#702632"/>
<path d="M1.53343e-05 43.2487C0.00755776 40.0391 3.10745 37.4324 6.92381 37.4267L15.8052 37.4132C19.6216 37.4074 22.7092 40.0047 22.7017 43.2144L22.3391 197.528C22.3315 200.738 19.2316 203.344 15.4153 203.35L6.53387 203.363C2.71751 203.369 -0.0075289 200.71 1.35231e-05 197.5L1.53794e-05 178.5L1.53732e-05 159L1.53601e-05 120.5L1.53471e-05 82L1.53343e-05 43.2487Z" fill="url(#paint2_linear_244_677)"/>
<path d="M248.298 42.8599C248.306 39.6503 251.406 37.0436 255.222 37.0379L264.103 37.0244C267.92 37.0186 271.007 39.6159 271 42.8256L271 197.5C270.992 200.71 267.53 202.955 263.714 202.961L254.832 202.975C251.016 202.98 247.928 200.383 247.936 197.173L248.298 42.8599Z" fill="url(#paint3_linear_244_677)"/>
<defs>
<linearGradient id="paint0_linear_244_677" x1="135.5" y1="1.62193e-07" x2="135.5" y2="310" gradientUnits="userSpaceOnUse">
<stop stop-color="#242424"/>
<stop offset="1" stop-color="#702632"/>
</linearGradient>
<linearGradient id="paint1_linear_244_677" x1="135.5" y1="1.62193e-07" x2="135.5" y2="310" gradientUnits="userSpaceOnUse">
<stop stop-color="#242424"/>
<stop offset="1" stop-color="#702632"/>
</linearGradient>
<linearGradient id="paint2_linear_244_677" x1="135.5" y1="28.7331" x2="135.5" y2="338.733" gradientUnits="userSpaceOnUse">
<stop stop-color="#242424"/>
<stop offset="1" stop-color="#6D2631"/>
</linearGradient>
<linearGradient id="paint3_linear_244_677" x1="260.736" y1="35.5227" x2="260.987" y2="201.458" gradientUnits="userSpaceOnUse">
<stop stop-color="#242424"/>
<stop offset="1" stop-color="#6D2631"/>
</linearGradient>
</defs>
</svg>
