<?xml version="1.0" standalone="no"?>
<!DOCTYPE svg PUBLIC "-//W3C//DTD SVG 20010904//EN"
 "http://www.w3.org/TR/2001/REC-SVG-20010904/DTD/svg10.dtd">
<svg version="1.0" xmlns="http://www.w3.org/2000/svg"
 width="275.000000pt" height="183.000000pt" viewBox="0 0 275.000000 183.000000"
 preserveAspectRatio="xMidYMid meet">

<g transform="translate(0.000000,183.000000) scale(0.100000,-0.100000)"
fill="#000000" stroke="none">
<path d="M0 1330 l0 -500 1375 1 1375 1 0 69 0 69 -835 0 -835 0 0 80 0 80
835 0 835 0 0 71 0 70 -772 -2 c-425 -1 -801 -1 -835 0 l-63 1 0 81 0 81 835
-6 835 -5 0 72 0 72 -835 -3 -835 -3 0 80 0 81 835 0 835 0 0 55 0 55 -1375 0
-1375 0 0 -500z m106 440 c13 0 14 -3 4 -15 -7 -8 -9 -24 -5 -37 7 -22 6 -22
-11 -6 -16 16 -19 16 -35 2 -16 -15 -17 -14 -12 5 3 12 0 27 -6 35 -9 11 -7
15 9 19 11 3 20 13 21 24 0 15 2 14 9 -4 5 -13 17 -23 26 -23z m367 0 c16 0
18 -3 9 -12 -7 -7 -12 -21 -12 -32 0 -15 -3 -17 -12 -8 -9 9 -16 8 -29 -4 -16
-15 -17 -14 -12 5 3 12 0 27 -6 35 -9 11 -7 15 9 19 11 3 21 13 21 24 1 13 3
12 6 -4 3 -15 12 -23 26 -23z m369 0 c19 0 20 -2 6 -17 -9 -10 -14 -22 -12
-28 2 -5 -9 -10 -25 -11 -21 -1 -28 3 -24 13 3 7 0 20 -7 28 -10 12 -10 15 3
15 9 0 19 10 23 23 l8 22 4 -22 c2 -16 10 -23 24 -23z m184 0 c13 0 14 -3 4
-15 -7 -8 -10 -24 -7 -36 5 -19 4 -20 -12 -5 -13 12 -20 13 -29 4 -9 -9 -12
-7 -12 8 0 11 -5 25 -12 32 -9 9 -7 12 10 12 16 0 22 6 23 23 l0 22 9 -22 c5
-13 17 -23 26 -23z m-756 15 c0 -9 9 -15 23 -15 20 -1 21 -2 4 -14 -9 -7 -15
-20 -12 -28 4 -11 -2 -15 -25 -15 -23 0 -29 4 -25 15 3 8 -3 21 -12 28 -17 12
-16 13 5 14 13 0 22 6 22 15 0 8 5 15 10 15 6 0 10 -7 10 -15z m387 -15 c13 0
13 -3 3 -15 -7 -8 -10 -22 -6 -30 6 -17 -9 -21 -19 -5 -5 8 -12 7 -23 -2 -14
-11 -15 -10 -9 6 5 12 1 23 -10 32 -17 12 -16 13 5 14 14 0 22 6 22 18 1 16 1
16 11 0 5 -10 17 -18 26 -18z m-451 -100 c18 -1 18 -1 1 -15 -14 -10 -17 -20
-11 -37 6 -20 5 -21 -10 -9 -13 11 -19 11 -32 0 -14 -11 -15 -10 -12 7 1 12
-3 28 -11 37 -12 15 -11 17 8 17 13 0 21 6 21 18 1 16 1 16 14 0 7 -10 22 -18
32 -18z m176 0 c18 0 19 -2 7 -17 -8 -9 -12 -25 -11 -37 3 -17 2 -18 -12 -7
-13 11 -19 11 -32 0 -15 -12 -16 -11 -10 9 6 17 3 27 -11 37 -17 14 -17 14 3
15 12 0 25 8 29 18 8 16 8 16 12 0 3 -10 14 -18 25 -18z m176 -10 c5 0 7 -10
5 -22 -3 -16 -11 -23 -29 -23 -13 0 -22 5 -20 10 2 6 -3 18 -12 28 -14 15 -13
17 6 17 14 0 22 6 23 18 0 13 2 12 9 -5 5 -13 13 -23 18 -23z m374 10 c19 0
20 -1 5 -18 -12 -13 -13 -21 -5 -37 11 -18 10 -19 -6 -6 -14 11 -22 12 -36 3
-15 -9 -17 -8 -13 9 4 12 -2 25 -13 34 -18 14 -18 14 4 15 12 0 26 8 30 18 6
16 7 16 10 0 2 -10 12 -18 24 -18z m-198 4 c3 -8 10 -12 16 -9 5 3 10 1 10 -4
0 -6 -5 -11 -11 -11 -6 0 -9 -8 -7 -18 4 -15 0 -19 -22 -19 -22 0 -26 4 -22
19 2 10 -1 18 -7 18 -6 0 -11 5 -11 11 0 5 5 7 10 4 6 -3 13 1 16 9 3 9 10 16
14 16 4 0 11 -7 14 -16z m-627 -114 c14 0 15 -2 4 -9 -8 -5 -12 -18 -8 -31 4
-17 3 -19 -9 -9 -11 9 -17 9 -29 -1 -13 -11 -15 -8 -15 14 0 14 -4 26 -10 26
-5 0 -10 4 -10 10 0 5 7 7 16 3 10 -4 17 2 21 17 l6 24 8 -22 c5 -12 16 -22
26 -22z m370 0 c16 -1 17 -1 1 -10 -11 -7 -14 -17 -10 -32 5 -21 4 -22 -11 -9
-13 10 -20 11 -31 2 -11 -9 -12 -6 -8 14 2 15 0 25 -7 25 -6 0 -11 5 -11 11 0
6 7 9 14 6 10 -4 18 2 22 16 l7 22 8 -23 c5 -12 16 -22 26 -22z m370 0 c16 -1
17 -1 1 -10 -11 -7 -14 -17 -10 -32 5 -21 4 -22 -11 -9 -13 10 -20 11 -31 2
-12 -10 -13 -8 -9 9 4 13 0 26 -8 31 -11 7 -11 9 2 9 9 0 20 10 23 23 l7 22 9
-22 c5 -13 17 -23 27 -23z m180 0 c14 0 15 -2 4 -9 -8 -5 -12 -18 -8 -30 5
-22 -8 -30 -16 -8 -4 10 -7 10 -18 0 -20 -20 -31 -15 -19 7 9 16 8 22 -5 26
-8 3 -15 10 -15 15 0 4 7 6 16 2 10 -4 17 2 21 17 l6 24 8 -22 c5 -12 16 -22
26 -22z m-757 15 c0 -8 7 -15 16 -15 13 0 14 -3 5 -14 -6 -7 -8 -22 -4 -32 6
-17 5 -17 -10 -5 -14 11 -20 11 -34 0 -15 -12 -16 -12 -10 5 4 10 2 25 -4 32
-9 11 -8 14 5 14 9 0 16 7 16 15 0 8 5 15 10 15 6 0 10 -7 10 -15z m388 -15
c14 0 14 -2 3 -9 -8 -5 -12 -18 -8 -31 4 -17 3 -19 -9 -9 -11 9 -18 8 -31 -2
-15 -12 -16 -12 -10 5 4 10 2 25 -4 32 -9 11 -8 14 5 14 9 0 16 8 16 18 1 16
1 16 11 0 5 -10 18 -18 27 -18z m-460 -100 c11 0 12 -3 3 -14 -6 -7 -9 -21 -5
-30 7 -18 -11 -22 -21 -6 -5 8 -12 7 -22 -2 -14 -11 -15 -10 -9 9 5 15 2 25
-11 32 -16 9 -16 10 5 11 16 0 22 6 23 23 l0 22 11 -22 c6 -13 18 -23 26 -23z
m185 0 c19 -1 20 -2 5 -10 -11 -7 -14 -17 -10 -32 5 -20 3 -21 -10 -10 -11 9
-18 10 -23 2 -10 -16 -25 -12 -18 6 4 11 -1 22 -12 30 -18 13 -18 14 2 14 13
0 25 9 29 23 l8 22 4 -22 c2 -16 10 -23 25 -23z m183 0 c13 0 14 -3 4 -15 -7
-8 -10 -22 -6 -30 6 -17 -9 -21 -19 -5 -5 8 -12 7 -23 -2 -13 -11 -15 -10 -10
9 4 15 0 24 -11 28 -13 6 -12 8 7 16 12 4 22 16 23 26 0 14 2 13 9 -4 5 -13
17 -23 26 -23z m367 0 c19 -1 20 -2 7 -13 -9 -7 -14 -21 -12 -32 4 -16 2 -17
-11 -7 -10 9 -17 10 -22 2 -10 -16 -25 -12 -19 5 4 8 1 22 -6 30 -10 12 -10
15 3 15 9 0 19 10 23 23 l8 22 4 -22 c2 -16 10 -23 25 -23z m-185 0 c7 0 7 -7
-1 -23 -11 -24 -47 -32 -47 -10 0 6 -8 17 -17 22 -16 9 -16 10 5 11 14 0 22 6
22 18 1 16 1 16 14 0 7 -10 18 -18 24 -18z m-276 -100 c17 0 18 -3 8 -15 -7
-8 -10 -25 -7 -37 6 -20 5 -20 -10 -5 -16 15 -18 15 -36 0 -18 -17 -18 -16
-12 9 5 19 2 29 -12 37 -16 9 -16 10 5 11 16 0 26 8 30 23 l7 22 3 -22 c2 -15
10 -23 24 -23z m554 0 c13 0 14 -3 4 -15 -7 -8 -10 -24 -7 -36 5 -17 3 -18
-10 -8 -11 10 -19 10 -33 1 -15 -9 -17 -8 -13 9 3 10 0 25 -6 33 -9 11 -7 15
9 19 11 3 20 13 21 24 0 15 2 14 9 -4 5 -13 17 -23 26 -23z m-913 0 c20 -1 21
-1 4 -11 -14 -8 -17 -18 -12 -37 5 -22 4 -24 -9 -13 -9 7 -23 11 -31 7 -10 -3
-15 1 -15 12 0 10 -5 23 -12 30 -9 9 -8 12 5 12 10 0 20 7 24 16 5 15 7 15 15
0 5 -9 19 -16 31 -16z m157 15 c0 -9 9 -15 23 -15 21 -1 21 -1 4 -15 -14 -10
-17 -20 -11 -37 6 -20 5 -21 -8 -10 -9 7 -24 9 -33 5 -15 -5 -17 -3 -12 12 5
11 1 22 -10 31 -17 12 -16 13 5 14 13 0 22 6 22 15 0 8 5 15 10 15 6 0 10 -7
10 -15z m393 -15 c20 -1 21 -1 4 -11 -14 -8 -17 -18 -12 -37 5 -22 4 -24 -9
-13 -9 7 -23 10 -32 7 -12 -5 -15 -2 -10 10 4 10 -1 22 -11 30 -17 12 -16 13
5 14 14 0 22 6 22 18 1 16 1 16 11 0 5 -10 20 -18 32 -18z m180 0 c21 -1 21
-2 4 -14 -11 -9 -15 -20 -11 -32 6 -15 4 -17 -6 -7 -10 9 -17 10 -27 2 -10 -9
-13 -7 -13 8 0 10 -5 24 -12 31 -9 9 -8 12 5 12 10 0 21 8 25 18 6 16 7 16 10
0 2 -11 13 -18 25 -18z m-644 -111 c10 0 12 -2 4 -6 -7 -2 -13 -14 -13 -24 0
-12 -5 -17 -10 -14 -6 4 -18 1 -27 -7 -15 -11 -16 -11 -10 6 4 10 3 24 -3 31
-8 9 -6 14 5 19 8 3 15 13 16 23 0 15 2 14 11 -4 6 -13 18 -23 27 -24z m183
11 c18 0 19 -2 7 -17 -8 -9 -12 -25 -11 -37 3 -17 2 -18 -12 -7 -12 10 -19 11
-30 2 -11 -9 -12 -6 -8 14 2 15 0 25 -7 25 -6 0 -11 5 -11 11 0 6 6 9 14 6 9
-3 17 3 21 16 6 19 8 20 12 5 2 -10 14 -18 25 -18z m183 0 c8 0 15 -4 15 -10
0 -5 -5 -10 -11 -10 -7 0 -9 -10 -7 -25 4 -20 3 -23 -8 -14 -11 9 -18 8 -31
-2 -15 -13 -16 -12 -11 9 4 15 2 25 -8 29 -21 8 -17 23 6 23 12 0 20 7 20 18
1 16 1 16 11 0 5 -10 17 -18 24 -18z m372 -3 c17 6 17 5 2 -13 -9 -10 -15 -23
-13 -29 2 -5 -7 -10 -20 -10 -28 0 -43 40 -20 49 8 3 14 13 15 23 0 14 2 13 9
-4 7 -16 14 -21 27 -16z m-197 3 c11 -11 15 -20 9 -20 -7 0 -9 -10 -4 -27 5
-23 4 -25 -9 -14 -13 11 -19 11 -33 0 -15 -12 -16 -12 -10 5 5 12 1 26 -9 37
-16 18 -16 19 4 19 12 0 22 5 22 10 0 15 8 12 30 -10z m-633 -110 c14 0 15 -2
4 -9 -8 -5 -12 -18 -8 -30 4 -17 2 -19 -12 -11 -12 6 -22 5 -31 -3 -10 -10
-12 -7 -7 11 4 16 0 25 -10 29 -13 5 -12 8 5 14 12 5 22 16 23 26 0 14 2 13 9
-4 5 -13 17 -23 27 -23z m370 0 c13 0 14 -3 5 -12 -7 -7 -12 -21 -12 -32 0
-15 -3 -17 -11 -9 -6 6 -17 10 -23 7 -6 -2 -16 7 -23 21 -9 20 -8 25 2 25 8 0
17 10 21 22 l7 23 8 -23 c5 -12 16 -22 26 -22z m181 0 c12 0 12 -3 2 -15 -7
-8 -9 -22 -6 -31 5 -14 4 -15 -9 -4 -12 10 -18 10 -31 -1 -15 -12 -16 -11 -10
9 5 16 3 24 -8 28 -9 3 -16 10 -16 15 0 4 7 6 16 2 10 -4 17 2 21 18 l6 23 10
-22 c6 -12 17 -22 25 -22z m179 0 c12 0 13 -3 4 -14 -6 -7 -8 -22 -4 -32 6
-17 5 -17 -10 -5 -14 11 -20 11 -34 0 -15 -12 -16 -12 -10 5 4 10 2 25 -4 32
-9 11 -8 14 4 14 9 0 19 10 23 23 l8 22 4 -22 c2 -13 10 -23 19 -23z m190 -1
c11 0 13 -3 6 -6 -7 -2 -13 -13 -13 -23 0 -12 -8 -17 -26 -17 -17 0 -24 4 -20
13 3 7 0 16 -6 20 -7 4 -5 10 6 16 9 5 16 17 17 26 0 12 3 11 9 -5 5 -13 17
-23 27 -24z m-757 16 c0 -8 7 -15 16 -15 13 0 14 -3 5 -14 -6 -7 -8 -22 -4
-32 6 -17 5 -17 -10 -5 -14 11 -20 11 -34 0 -15 -12 -16 -12 -10 5 4 10 2 25
-4 32 -9 11 -8 14 5 14 9 0 16 7 16 15 0 8 5 15 10 15 6 0 10 -7 10 -15z m296
-115 c13 0 14 -3 4 -15 -7 -8 -10 -22 -6 -30 6 -17 -9 -21 -19 -5 -5 8 -11 7
-21 -1 -11 -9 -14 -7 -14 9 0 12 -5 24 -12 28 -7 5 -4 10 10 15 12 5 22 16 23
26 0 14 2 13 9 -4 5 -13 17 -23 26 -23z m-366 0 c10 0 10 -3 0 -15 -7 -8 -10
-22 -6 -30 6 -17 -9 -21 -19 -5 -5 8 -12 7 -23 -2 -14 -11 -15 -10 -9 6 5 12
1 23 -10 32 -17 12 -16 13 5 14 14 0 22 6 22 18 1 16 1 16 14 0 7 -10 19 -18
26 -18z m183 0 c21 -1 21 -2 4 -14 -11 -9 -15 -20 -10 -32 6 -16 5 -17 -9 -6
-11 9 -18 10 -23 2 -10 -16 -25 -12 -18 6 4 11 -1 22 -12 30 -18 13 -18 14 2
14 11 0 24 8 28 18 8 16 8 16 12 0 3 -10 14 -18 26 -18z m373 0 c17 0 17 -1
-1 -14 -12 -8 -16 -19 -11 -31 5 -15 4 -16 -9 -5 -12 10 -18 10 -31 -1 -15
-12 -16 -11 -10 8 5 15 2 25 -11 32 -16 9 -16 10 5 11 14 0 22 6 22 18 1 16 1
16 14 0 7 -10 21 -18 32 -18z m177 0 c20 -1 20 -1 4 -11 -13 -7 -16 -17 -11
-32 6 -19 5 -20 -9 -9 -10 9 -17 10 -22 2 -10 -16 -25 -12 -19 5 4 8 1 22 -6
30 -10 12 -9 15 9 15 13 0 21 7 22 18 1 16 2 16 6 0 2 -10 14 -18 26 -18z
m-821 -100 c21 -1 22 -1 5 -11 -14 -8 -17 -18 -12 -37 5 -22 4 -24 -9 -13 -9
7 -23 11 -31 7 -10 -4 -15 1 -15 14 0 10 -5 22 -12 26 -7 5 -4 10 10 15 12 5
22 16 23 26 0 14 2 13 9 -4 6 -14 18 -23 32 -23z m184 0 c19 -1 19 -1 0 -15
-11 -9 -16 -20 -12 -31 5 -12 2 -15 -10 -10 -9 4 -23 1 -32 -6 -13 -11 -14
-10 -8 10 6 17 3 27 -11 37 -17 14 -17 14 5 15 14 0 22 6 22 18 1 16 1 16 14
0 7 -10 22 -18 32 -18z m176 0 c19 0 20 -2 6 -17 -9 -10 -13 -25 -10 -33 4
-12 2 -13 -9 -3 -10 10 -16 10 -30 -3 -16 -15 -17 -14 -12 5 3 12 0 28 -7 36
-10 12 -9 15 4 15 9 0 20 8 24 18 6 16 7 16 10 0 2 -10 12 -18 24 -18z m194 0
c18 -1 18 -1 1 -15 -14 -10 -17 -20 -11 -37 6 -20 5 -21 -9 -9 -9 7 -24 10
-33 7 -10 -4 -14 -2 -11 6 2 7 -2 21 -11 31 -14 15 -13 17 6 17 14 0 22 6 22
18 1 16 1 16 14 0 7 -10 22 -18 32 -18z m177 0 c21 -1 21 -2 4 -14 -11 -9 -15
-20 -11 -32 6 -16 4 -17 -6 -7 -11 10 -18 9 -33 -5 -19 -16 -19 -16 -12 6 5
17 2 27 -12 37 -17 14 -17 14 3 15 12 0 25 8 29 18 8 16 8 16 12 0 3 -10 14
-18 26 -18z m179 0 c19 0 20 -2 6 -17 -9 -10 -13 -25 -10 -33 4 -12 2 -13 -9
-3 -10 10 -16 10 -27 0 -12 -10 -14 -9 -10 3 3 8 -1 23 -10 33 -14 15 -13 17
6 17 14 0 22 7 23 18 1 16 2 16 6 0 2 -10 14 -18 25 -18z"/>
<path d="M0 605 l0 -71 683 3 c375 2 994 3 1375 3 l692 0 0 68 0 67 -1375 0
-1375 0 0 -70z"/>
<path d="M0 310 l0 -70 1375 0 1375 0 0 70 0 70 -1375 0 -1375 0 0 -70z"/>
<path d="M288 92 l-288 -2 0 -45 0 -45 1375 0 1375 0 0 45 0 45 -277 1 c-680
3 -1923 4 -2185 1z"/>
</g>
</svg>
