<svg width="16" height="38" viewBox="0 0 16 38" fill="none" xmlns="http://www.w3.org/2000/svg">
<path d="M10.5595 37.6211H5.43993C4.76103 37.6211 4.10993 37.3514 3.62987 36.8714C3.14982 36.3913 2.88012 35.7402 2.88012 35.0613V26.102C2.20122 26.102 1.55012 25.8323 1.07006 25.3522C0.590006 24.8722 0.320312 24.2211 0.320312 23.5422V15.8628C0.320312 14.8444 0.724852 13.8678 1.44494 13.1477C2.16502 12.4276 3.14167 12.023 4.16003 12.023H11.8395C12.8578 12.023 13.8345 12.4276 14.5545 13.1477C15.2746 13.8678 15.6792 14.8444 15.6792 15.8628V23.5422C15.6792 24.2211 15.4095 24.8722 14.9294 25.3522C14.4494 25.8323 13.7983 26.102 13.1194 26.102V35.0613C13.1194 35.7402 12.8497 36.3913 12.3696 36.8714C11.8895 37.3514 11.2385 37.6211 10.5595 37.6211ZM4.16003 14.5829C3.98902 14.5715 3.81757 14.5969 3.65715 14.6572C3.49674 14.7175 3.35106 14.8114 3.22988 14.9326C3.1087 15.0538 3.0148 15.1995 2.95448 15.3599C2.89416 15.5203 2.86881 15.6918 2.88012 15.8628V23.5422H5.43993V35.0613H10.5595V23.5422H13.1194V15.8628C13.1307 15.6918 13.1053 15.5203 13.045 15.3599C12.9847 15.1995 12.8908 15.0538 12.7696 14.9326C12.6484 14.8114 12.5027 14.7175 12.3423 14.6572C12.1819 14.5969 12.0105 14.5715 11.8395 14.5829H4.16003ZM7.99974 10.7431C6.98717 10.7431 5.99735 10.4429 5.15543 9.88033C4.31352 9.31778 3.65732 8.51821 3.26983 7.58272C2.88234 6.64723 2.78095 5.61785 2.97849 4.62474C3.17603 3.63163 3.66363 2.7194 4.37962 2.00341C5.09561 1.28742 6.00784 0.799822 7.00095 0.602281C7.99406 0.404739 9.02344 0.506124 9.95893 0.893616C10.8944 1.28111 11.694 1.9373 12.2565 2.77922C12.8191 3.62114 13.1194 4.61096 13.1194 5.62353C13.1194 6.98133 12.58 8.28353 11.6199 9.24364C10.6597 10.2038 9.35755 10.7431 7.99974 10.7431ZM7.99974 3.06372C7.49346 3.06372 6.99854 3.21385 6.57759 3.49512C6.15663 3.7764 5.82853 4.17619 5.63478 4.64393C5.44104 5.11167 5.39035 5.62637 5.48912 6.12292C5.58789 6.61947 5.83169 7.07559 6.18968 7.43359C6.54768 7.79158 7.00379 8.03538 7.50035 8.13415C7.9969 8.23292 8.51159 8.18223 8.97934 7.98848C9.44708 7.79474 9.84687 7.46664 10.1281 7.04568C10.4094 6.62472 10.5595 6.12981 10.5595 5.62353C10.5595 4.94462 10.2899 4.29353 9.8098 3.81347C9.32974 3.33341 8.67864 3.06372 7.99974 3.06372Z" fill="#DFDAD0"/>
</svg>
