<svg width="38" height="38" viewBox="0 0 38 38" fill="none" xmlns="http://www.w3.org/2000/svg">
<path d="M8.42548 37.6004V33.4812H16.6639V27.0964C14.9819 26.7188 13.4805 26.0069 12.1596 24.9606C10.8387 23.9143 9.86858 22.6009 9.24932 21.0205C6.6748 20.7116 4.52113 19.5877 2.78831 17.6489C1.05548 15.7101 0.188385 13.4356 0.187012 10.8254V8.76581C0.187012 7.63302 0.590697 6.66363 1.39807 5.85763C2.20544 5.05163 3.17483 4.64795 4.30624 4.64658H8.42548V0.527344H29.0216V4.64658H33.1409C34.2737 4.64658 35.2437 5.05026 36.0511 5.85763C36.8585 6.665 37.2615 7.63439 37.2601 8.76581V10.8254C37.2601 13.4343 36.393 15.7088 34.6588 17.6489C32.9246 19.5891 30.7709 20.713 28.1978 21.0205C27.5799 22.5996 26.6105 23.9129 25.2896 24.9606C23.9687 26.0082 22.4666 26.7202 20.7832 27.0964V33.4812H29.0216V37.6004H8.42548ZM8.42548 16.5923V8.76581H4.30624V10.8254C4.30624 12.1298 4.68384 13.3059 5.43903 14.3535C6.19423 15.4012 7.18971 16.1475 8.42548 16.5923ZM29.0216 16.5923C30.2574 16.1461 31.2529 15.3991 32.0081 14.3515C32.7633 13.3038 33.1409 12.1285 33.1409 10.8254V8.76581H29.0216V16.5923Z" fill="#DFDAD0"/>
</svg>
