<svg width="38" height="38" viewBox="0 0 38 38" fill="none" xmlns="http://www.w3.org/2000/svg">
<path d="M30.2138 29.0551C29.7319 27.5722 28.3416 26.4785 26.6919 26.4785H24.8382V20.9175C24.8382 20.4259 24.6429 19.9544 24.2953 19.6068C23.9477 19.2592 23.4762 19.0639 22.9846 19.0639H11.8627V15.3566H15.57C16.0616 15.3566 16.5331 15.1613 16.8807 14.8137C17.2283 14.466 17.4236 13.9945 17.4236 13.5029V9.79562H21.1309C22.1142 9.79562 23.0571 9.40503 23.7524 8.70977C24.4476 8.01452 24.8382 7.07155 24.8382 6.08831V5.32831C27.0561 6.22245 29.0242 7.6407 30.5742 9.46165C32.1242 11.2826 33.2099 13.452 33.7383 15.7842C34.2667 18.1164 34.222 20.542 33.6082 22.8531C32.9944 25.1643 31.8297 27.2924 30.2138 29.0551ZM17.4236 33.7634C10.1017 32.8551 4.44803 26.6268 4.44803 19.0639C4.44803 17.9146 4.59632 16.8024 4.8373 15.7459L13.7163 24.6249V26.4785C13.7163 27.4618 14.1069 28.4047 14.8022 29.1C15.4974 29.7952 16.4404 30.1858 17.4236 30.1858M19.2773 0.527344C16.843 0.527344 14.4326 1.00681 12.1836 1.93835C9.93468 2.8699 7.89123 4.2353 6.16995 5.95657C2.69367 9.43285 0.740723 14.1477 0.740723 19.0639C0.740723 23.9801 2.69367 28.6949 6.16995 32.1712C7.89123 33.8925 9.93468 35.2579 12.1836 36.1894C14.4326 37.121 16.843 37.6004 19.2773 37.6004C24.1935 37.6004 28.9083 35.6475 32.3846 32.1712C35.8609 28.6949 37.8138 23.9801 37.8138 19.0639C37.8138 16.6296 37.3344 14.2192 36.4028 11.9703C35.4713 9.7213 34.1059 7.67785 32.3846 5.95657C30.6633 4.2353 28.6199 2.8699 26.3709 1.93835C24.1219 1.00681 21.7115 0.527344 19.2773 0.527344Z" fill="#DFDAD0"/>
</svg>
